<svg width="273" height="41" viewBox="0 0 273 41" fill="none" xmlns="http://www.w3.org/2000/svg">
<g clip-path="url(#clip0_1_492)">
<path d="M110.135 0.00159484H9.53468C9.16798 0.00159484 8.80568 0.00159484 8.43995 0.00359484C8.1338 0.00559484 7.83009 0.0114048 7.521 0.0162948C6.84951 0.0241966 6.17961 0.0832711 5.5171 0.193005C4.85552 0.305127 4.21467 0.516511 3.61622 0.820005C3.0185 1.12607 2.47235 1.52376 1.99757 1.99866C1.5203 2.47223 1.12246 3.01961 0.81935 3.61975C0.5154 4.2187 0.304641 4.86053 0.19435 5.52308C0.0830109 6.18478 0.0230984 6.85412 0.01515 7.52507C0.00587 7.83168 0.00489 8.13929 0 8.44593V31.5602C0.00489 31.8707 0.00587 32.1715 0.01515 32.4821C0.0231008 33.153 0.0830134 33.8223 0.19435 34.484C0.304336 35.1469 0.515108 35.7891 0.81935 36.3883C1.12233 36.9865 1.52022 37.5317 1.99757 38.0026C2.47054 38.4796 3.01705 38.8776 3.61622 39.1813C4.21467 39.4856 4.85545 39.6982 5.5171 39.8121C6.17972 39.921 6.84956 39.98 7.521 39.9889C7.83009 39.9957 8.1338 39.9996 8.43995 39.9996C8.80567 40.0016 9.168 40.0016 9.53468 40.0016H110.135C110.494 40.0016 110.859 40.0016 111.219 39.9996C111.523 39.9996 111.836 39.9957 112.141 39.9889C112.811 39.9805 113.479 39.9214 114.141 39.8121C114.804 39.6974 115.448 39.4849 116.049 39.1813C116.647 38.8774 117.193 38.4794 117.666 38.0026C118.142 37.5298 118.541 36.9851 118.848 36.3883C119.15 35.7887 119.358 35.1465 119.467 34.484C119.578 33.8222 119.64 33.1531 119.652 32.4821C119.656 32.1715 119.656 31.8707 119.656 31.5602C119.664 31.1969 119.664 30.8356 119.664 30.4664V9.53772C119.664 9.17151 119.664 8.80823 119.656 8.44593C119.656 8.13929 119.656 7.83168 119.652 7.52503C119.64 6.85402 119.578 6.18483 119.467 5.52304C119.358 4.86088 119.149 4.2191 118.848 3.61971C118.23 2.41679 117.252 1.43762 116.049 0.819915C115.448 0.517162 114.804 0.305835 114.141 0.192915C113.48 0.0826976 112.811 0.0236026 112.141 0.0161548C111.836 0.0112748 111.523 0.00541484 111.219 0.00346484C110.859 0.00146484 110.494 0.00146484 110.135 0.00146484V0.00159484Z" fill="#A6A6A6"/>
<path d="M8.44487 39.1265C8.14019 39.1265 7.84287 39.1226 7.54058 39.1158C6.91436 39.1076 6.2896 39.0531 5.67144 38.9527C5.09503 38.8534 4.53664 38.6687 4.0147 38.4048C3.49754 38.143 3.02585 37.7997 2.6177 37.3882C2.20364 36.9814 1.85891 36.5097 1.59719 35.9917C1.33258 35.4703 1.14945 34.9114 1.05419 34.3345C0.951311 33.7146 0.895651 33.0878 0.887687 32.4595C0.881347 32.2486 0.873047 31.5464 0.873047 31.5464V8.4458C0.873047 8.4458 0.881887 7.75439 0.887737 7.55126C0.895363 6.92395 0.950699 6.29812 1.05327 5.67919C1.14871 5.10072 1.33197 4.54021 1.59673 4.01709C1.85749 3.49941 2.2003 3.02733 2.61187 2.61914C3.02297 2.20709 3.49617 1.86207 4.01421 1.59667C4.53495 1.33356 5.09228 1.1502 5.66753 1.05273C6.28772 0.951301 6.91465 0.896461 7.54304 0.888675L8.44536 0.876465H111.214L112.127 0.889165C112.75 0.896564 113.371 0.950915 113.985 1.05175C114.566 1.15044 115.13 1.33508 115.656 1.5996C116.694 2.13445 117.539 2.98063 118.071 4.01954C118.332 4.53904 118.512 5.09497 118.607 5.66845C118.71 6.29246 118.768 6.9232 118.78 7.55567C118.783 7.83886 118.783 8.14306 118.783 8.4458C118.791 8.8208 118.791 9.17773 118.791 9.53759V30.4663C118.791 30.8296 118.791 31.1841 118.783 31.5415C118.783 31.8667 118.783 32.1646 118.779 32.4712C118.768 33.0923 118.711 33.7118 118.608 34.3247C118.515 34.9057 118.333 35.469 118.068 35.9947C117.805 36.5071 117.462 36.9747 117.053 37.3804C116.644 37.7941 116.172 38.1394 115.653 38.4029C115.128 38.6689 114.566 38.8542 113.985 38.9527C113.367 39.0536 112.742 39.1081 112.116 39.1158C111.823 39.1226 111.517 39.1265 111.219 39.1265L110.135 39.1285L8.44487 39.1265Z" fill="black"/>
<path d="M24.769 20.3023C24.7797 19.4676 25.0014 18.6492 25.4135 17.9233C25.8255 17.1973 26.4145 16.5874 27.1256 16.1502C26.6738 15.5051 26.0779 14.9741 25.385 14.5996C24.6922 14.225 23.9216 14.0172 23.1344 13.9925C21.4552 13.8163 19.8272 14.9974 18.9715 14.9974C18.0992 14.9974 16.7817 14.01 15.363 14.0392C14.4453 14.0689 13.551 14.3357 12.7671 14.8138C11.9832 15.2919 11.3365 15.9648 10.8901 16.7671C8.95607 20.1155 10.3987 25.0366 12.2513 27.7432C13.1782 29.0685 14.2615 30.549 15.6789 30.4965C17.066 30.439 17.584 29.612 19.2583 29.612C20.9171 29.612 21.4031 30.4965 22.8493 30.4631C24.3377 30.4389 25.2754 29.1319 26.1698 27.794C26.8358 26.8496 27.3483 25.8059 27.6882 24.7015C26.8235 24.3357 26.0856 23.7235 25.5665 22.9412C25.0474 22.159 24.77 21.2412 24.769 20.3023Z" fill="white"/>
<path d="M22.0376 12.2123C22.8491 11.2381 23.2489 9.98591 23.1521 8.72168C21.9123 8.8519 20.767 9.44446 19.9445 10.3813C19.5424 10.839 19.2344 11.3714 19.0381 11.9482C18.8419 12.5249 18.7612 13.1347 18.8008 13.7427C19.4209 13.7491 20.0344 13.6147 20.5951 13.3496C21.1558 13.0845 21.649 12.6956 22.0376 12.2123Z" fill="white"/>
<path d="M42.3027 27.1411H37.5693L36.4326 30.4976H34.4277L38.9111 18.0796H40.9941L45.4775 30.4976H43.4385L42.3027 27.1411ZM38.0596 25.5923H41.8116L39.962 20.145H39.9102L38.0596 25.5923Z" fill="white"/>
<path d="M55.1602 25.9714C55.1602 28.7849 53.6543 30.5925 51.3819 30.5925C50.8062 30.6226 50.2337 30.49 49.7299 30.2099C49.2261 29.9297 48.8114 29.5134 48.5332 29.0085H48.4902V33.4929H46.6318V21.4441H48.4307V22.9499H48.4649C48.7558 22.4475 49.1776 22.0333 49.6852 21.7514C50.1928 21.4696 50.7674 21.3306 51.3477 21.3493C53.6455 21.3493 55.1602 23.1657 55.1602 25.9714ZM53.25 25.9714C53.25 24.1384 52.3028 22.9333 50.8574 22.9333C49.4375 22.9333 48.4824 24.1638 48.4824 25.9714C48.4824 27.7956 49.4375 29.0173 50.8574 29.0173C52.3028 29.0173 53.25 27.821 53.25 25.9714Z" fill="white"/>
<path d="M65.125 25.9714C65.125 28.7849 63.6192 30.5925 61.3467 30.5925C60.7711 30.6226 60.1986 30.49 59.6948 30.2099C59.191 29.9297 58.7762 29.5134 58.4981 29.0085H58.4551V33.4929H56.5967V21.444H58.3955V22.9499H58.4297C58.7206 22.4474 59.1424 22.0333 59.65 21.7514C60.1576 21.4696 60.7322 21.3306 61.3125 21.3493C63.6104 21.3493 65.125 23.1657 65.125 25.9714ZM63.2149 25.9714C63.2149 24.1384 62.2676 22.9333 60.8223 22.9333C59.4024 22.9333 58.4473 24.1638 58.4473 25.9714C58.4473 27.7956 59.4024 29.0173 60.8223 29.0173C62.2676 29.0173 63.2149 27.821 63.2149 25.9714H63.2149Z" fill="white"/>
<path d="M71.711 27.0376C71.8487 28.2691 73.045 29.0776 74.6797 29.0776C76.2461 29.0776 77.3731 28.2691 77.3731 27.1587C77.3731 26.1948 76.6934 25.6177 75.084 25.2222L73.4746 24.8345C71.1944 24.2837 70.1358 23.2173 70.1358 21.4868C70.1358 19.3442 72.003 17.8726 74.6543 17.8726C77.2783 17.8726 79.0772 19.3442 79.1377 21.4868H77.2617C77.1494 20.2476 76.125 19.4995 74.6279 19.4995C73.1309 19.4995 72.1065 20.2564 72.1065 21.3579C72.1065 22.2358 72.7608 22.7524 74.3613 23.1479L75.7295 23.4839C78.2773 24.0864 79.3359 25.1099 79.3359 26.9262C79.3359 29.2495 77.4854 30.7046 74.542 30.7046C71.7881 30.7046 69.9287 29.2837 69.8086 27.0376L71.711 27.0376Z" fill="white"/>
<path d="M83.3467 19.3013V21.4438H85.0684V22.9155H83.3467V27.9067C83.3467 28.6821 83.6914 29.0435 84.4482 29.0435C84.6526 29.0399 84.8567 29.0255 85.0596 29.0005V30.4633C84.7193 30.5269 84.3734 30.5557 84.0273 30.5493C82.1943 30.5493 81.4795 29.8608 81.4795 28.1049V22.9155H80.1631V21.4438H81.4795V19.3013H83.3467Z" fill="white"/>
<path d="M86.0654 25.9712C86.0654 23.1226 87.7432 21.3325 90.3594 21.3325C92.9844 21.3325 94.6543 23.1225 94.6543 25.9712C94.6543 28.8276 92.9932 30.6099 90.3594 30.6099C87.7265 30.6099 86.0654 28.8276 86.0654 25.9712ZM92.7607 25.9712C92.7607 24.0171 91.8652 22.8638 90.3594 22.8638C88.8535 22.8638 87.959 24.0259 87.959 25.9712C87.959 27.9331 88.8535 29.0776 90.3594 29.0776C91.8652 29.0776 92.7607 27.9331 92.7607 25.9712H92.7607Z" fill="white"/>
<path d="M96.1865 21.444H97.959V22.985H98.002C98.1219 22.5037 98.4039 22.0784 98.8005 21.7805C99.197 21.4826 99.6841 21.3303 100.18 21.3492C100.394 21.3485 100.607 21.3717 100.816 21.4186V23.1569C100.546 23.0742 100.264 23.0363 99.9814 23.0445C99.7115 23.0336 99.4423 23.0812 99.1925 23.1841C98.9426 23.287 98.718 23.4427 98.534 23.6406C98.3501 23.8385 98.2111 24.0738 98.1267 24.3305C98.0422 24.5872 98.0143 24.8591 98.0449 25.1275V30.4977H96.1865L96.1865 21.444Z" fill="white"/>
<path d="M109.385 27.8384C109.135 29.4819 107.534 30.6099 105.486 30.6099C102.853 30.6099 101.218 28.8452 101.218 26.0142C101.218 23.1743 102.861 21.3325 105.408 21.3325C107.913 21.3325 109.488 23.0532 109.488 25.7983V26.4351H103.094V26.5474C103.064 26.8806 103.106 27.2162 103.216 27.5321C103.326 27.8479 103.502 28.1367 103.733 28.3792C103.963 28.6218 104.242 28.8125 104.552 28.9389C104.862 29.0652 105.195 29.1241 105.529 29.1118C105.968 29.153 106.409 29.0512 106.786 28.8218C107.163 28.5924 107.455 28.2475 107.62 27.8384L109.385 27.8384ZM103.103 25.1362H107.629C107.646 24.8366 107.6 24.5368 107.495 24.2556C107.391 23.9744 107.229 23.7179 107.021 23.5021C106.812 23.2863 106.561 23.116 106.284 23.0018C106.006 22.8876 105.708 22.8319 105.408 22.8384C105.106 22.8366 104.806 22.8947 104.526 23.0095C104.245 23.1242 103.991 23.2933 103.777 23.5069C103.562 23.7205 103.392 23.9745 103.277 24.2542C103.161 24.5338 103.102 24.8336 103.103 25.1362V25.1362Z" fill="white"/>
<path d="M36.7383 11.2549H37.5361C37.6735 11.272 37.8129 11.2604 37.9455 11.221C38.0782 11.1815 38.2013 11.115 38.307 11.0257C38.4127 10.9363 38.4987 10.826 38.5596 10.7018C38.6206 10.5775 38.6552 10.442 38.6611 10.3037C38.6611 9.75339 38.2471 9.39792 37.5449 9.39792C37.4042 9.37826 37.261 9.38699 37.1237 9.4236C36.9864 9.46021 36.8579 9.52395 36.7456 9.61107C36.6334 9.69819 36.5397 9.80691 36.4702 9.93081C36.4007 10.0547 36.3567 10.1913 36.3408 10.3325H35.4648C35.4799 10.0762 35.5476 9.82574 35.6636 9.59673C35.7797 9.36772 35.9417 9.16505 36.1394 9.00135C36.3372 8.83765 36.5666 8.71641 36.8133 8.64519C37.0599 8.57397 37.3186 8.55429 37.5732 8.58738C38.748 8.58738 39.5752 9.24508 39.5752 10.1919C39.578 10.509 39.4719 10.8176 39.2746 11.0659C39.0773 11.3143 38.8008 11.4875 38.4912 11.5566V11.6269C38.8582 11.6432 39.2038 11.8041 39.4525 12.0745C39.7012 12.3449 39.8328 12.7027 39.8184 13.0698C39.7912 13.3337 39.7116 13.5895 39.5843 13.8222C39.457 14.055 39.2845 14.26 39.077 14.4252C38.8694 14.5904 38.631 14.7125 38.3756 14.7844C38.1202 14.8563 37.8531 14.8764 37.5898 14.8437C37.326 14.8797 37.0577 14.8622 36.8008 14.7922C36.5439 14.7223 36.3037 14.6013 36.0946 14.4365C35.8854 14.2718 35.7116 14.0666 35.5834 13.8332C35.4553 13.5998 35.3754 13.343 35.3486 13.0781H36.2383C36.292 13.6489 36.8164 14.0171 37.5898 14.0171C38.3633 14.0171 38.8682 13.6035 38.8682 13.0205C38.8682 12.4292 38.3926 12.065 37.5615 12.065H36.7383V11.2549Z" fill="white"/>
<path d="M40.8291 13.4258C40.8291 12.6152 41.4336 12.1479 42.5039 12.0815L43.7236 12.0112V11.6226C43.7236 11.147 43.4102 10.8784 42.8018 10.8784C42.3057 10.8784 41.9629 11.0605 41.8633 11.3789H41.0029C41.0937 10.6055 41.8223 10.1094 42.8438 10.1094C43.9727 10.1094 44.6094 10.6714 44.6094 11.6226V14.6992H43.7529V14.0664H43.6826C43.5399 14.2934 43.3395 14.4784 43.1019 14.6027C42.8643 14.7269 42.5979 14.7858 42.3301 14.7734C42.141 14.7931 41.95 14.7729 41.7692 14.7142C41.5885 14.6555 41.422 14.5596 41.2806 14.4326C41.1392 14.3056 41.0259 14.1504 40.9482 13.977C40.8704 13.8036 40.8298 13.6158 40.8291 13.4258ZM43.7236 13.041V12.6645L42.624 12.7349C42.0039 12.7764 41.7226 12.9873 41.7226 13.3843C41.7226 13.7895 42.0742 14.0254 42.5576 14.0254C42.6993 14.0397 42.8423 14.0254 42.9784 13.9833C43.1144 13.9412 43.2405 13.8722 43.3493 13.7804C43.4581 13.6885 43.5473 13.5758 43.6116 13.4487C43.6759 13.3217 43.714 13.1831 43.7236 13.041Z" fill="white"/>
<path d="M46.9678 10.9443V14.6992H46.0791V10.1963H49.044V10.9443L46.9678 10.9443Z" fill="white"/>
<path d="M54.4297 12.4458C54.4297 13.8764 53.7061 14.7734 52.5693 14.7734C52.2903 14.7925 52.0116 14.7314 51.7661 14.5974C51.5206 14.4634 51.3185 14.262 51.1836 14.017H51.1133V16.1962H50.2246V10.1962H51.0801V10.9404H51.1465C51.2838 10.6869 51.4886 10.4762 51.7381 10.3317C51.9877 10.1872 52.2723 10.1145 52.5606 10.1216C53.7061 10.1215 54.4297 11.0146 54.4297 12.4458ZM53.5156 12.4458C53.5156 11.4946 53.0654 10.9199 52.3125 10.9199C51.5645 10.9199 51.0967 11.5068 51.0967 12.4497C51.0967 13.3881 51.5645 13.9755 52.3086 13.9755C53.0654 13.9755 53.5156 13.4008 53.5156 12.4458Z" fill="white"/>
<path d="M55.6133 16.312V15.5469C55.7095 15.5591 55.8064 15.5646 55.9033 15.5635C56.0927 15.5775 56.2805 15.5211 56.4308 15.4051C56.5811 15.2892 56.6833 15.1218 56.7178 14.9351L56.7842 14.7158L55.1543 10.1963H56.1221L57.251 13.7729H57.3213L58.4463 10.1963H59.3887L57.71 14.8853C57.3252 15.981 56.8995 16.3325 55.9815 16.3325C55.9073 16.3325 55.6963 16.3242 55.6133 16.312Z" fill="white"/>
<path d="M60.0811 13.4215H60.9658C61.0527 13.8185 61.4248 14.0255 61.9453 14.0255C62.5371 14.0255 62.9004 13.7647 62.9004 13.3595C62.9004 12.9254 62.5742 12.7184 61.9453 12.7184H61.2715V12.0279H61.9336C62.4707 12.0279 62.7441 11.8214 62.7441 11.4449C62.7441 11.1144 62.4795 10.8619 61.9336 10.8619C61.4365 10.8619 61.0732 11.0729 61.0156 11.4284H60.1592C60.2232 11.0199 60.445 10.6529 60.7768 10.4062C61.1086 10.1596 61.524 10.0531 61.9336 10.1095C63.0039 10.1095 63.6162 10.5934 63.6162 11.3541C63.6212 11.566 63.5533 11.7731 63.4239 11.9409C63.2945 12.1087 63.1114 12.227 62.9053 12.276V12.3463C63.1507 12.378 63.376 12.4986 63.5384 12.6854C63.7007 12.8722 63.7889 13.112 63.7861 13.3595C63.7861 14.2155 63.0576 14.7819 61.9453 14.7819C60.9619 14.7818 60.1631 14.3312 60.0811 13.4215Z" fill="white"/>
<path d="M65.0654 14.6992V10.1963H65.9463V13.2935H66.0166L68.0918 10.1963H68.9727V14.6992H68.0918V11.5855H68.0254L65.9463 14.6992L65.0654 14.6992Z" fill="white"/>
<path d="M73.8253 10.9443H72.4073V14.6992H71.5176V10.9443H70.0996V10.1963H73.8253V10.9443Z" fill="white"/>
<path d="M78.613 13.4835C78.4919 13.895 78.23 14.2509 77.8732 14.489C77.5164 14.7271 77.0873 14.8323 76.6608 14.7862C76.3641 14.794 76.0693 14.7372 75.7968 14.6197C75.5243 14.5022 75.2807 14.3267 75.0827 14.1056C74.8848 13.8845 74.7374 13.6229 74.6507 13.3391C74.564 13.0553 74.5402 12.756 74.5807 12.462C74.5412 12.1671 74.5655 11.8672 74.652 11.5825C74.7385 11.2978 74.8851 11.0351 75.082 10.812C75.2789 10.5889 75.5214 10.4107 75.7931 10.2895C76.0648 10.1683 76.3594 10.1069 76.6569 10.1095C77.9098 10.1095 78.6667 10.9655 78.6667 12.3795V12.6896H75.487V12.7394C75.4729 12.9046 75.4936 13.071 75.5476 13.2279C75.6017 13.3847 75.688 13.5285 75.8009 13.6499C75.9138 13.7714 76.0509 13.868 76.2034 13.9333C76.3559 13.9986 76.5203 14.0314 76.6862 14.0294C76.8986 14.0548 77.1138 14.0164 77.3044 13.9192C77.495 13.822 77.6524 13.6703 77.7565 13.4835L78.613 13.4835ZM75.487 12.0323H77.7604C77.7716 11.8813 77.7511 11.7295 77.7002 11.5869C77.6494 11.4442 77.5692 11.3138 77.4649 11.2039C77.3606 11.0941 77.2345 11.0072 77.0947 10.949C76.9549 10.8908 76.8044 10.8624 76.653 10.8658C76.4992 10.8637 76.3466 10.8925 76.2042 10.9504C76.0617 11.0082 75.9324 11.0941 75.8237 11.2028C75.715 11.3116 75.6292 11.441 75.5713 11.5835C75.5135 11.726 75.4848 11.8786 75.487 12.0323H75.487Z" fill="white"/>
<path d="M82.3799 10.1963H84.4102C85.291 10.1963 85.8076 10.6426 85.8076 11.3413C85.809 11.563 85.7342 11.7784 85.5957 11.9516C85.4572 12.1247 85.2635 12.2451 85.0469 12.2925V12.3628C85.3099 12.3794 85.5564 12.4964 85.7356 12.6896C85.9148 12.8827 86.0129 13.1374 86.0098 13.4009C86.0098 14.1865 85.4189 14.6992 84.4307 14.6992H82.3799V10.1963ZM83.2607 10.8784V12.0444H84.1416C84.6787 12.0444 84.9356 11.8379 84.9356 11.457C84.9356 11.1059 84.7119 10.8784 84.2402 10.8784L83.2607 10.8784ZM83.2607 12.6978V14.0171H84.3145C84.8399 14.0171 85.1211 13.7852 85.1211 13.3594C85.1211 12.9087 84.8028 12.6978 84.2031 12.6978L83.2607 12.6978Z" fill="white"/>
</g>
<g clip-path="url(#clip1_1_492)">
<path d="M267.664 40.0015H142.664C139.914 40.0015 137.664 37.7515 137.664 35.0015V5.00146C137.664 2.25146 139.914 0.00146484 142.664 0.00146484H267.664C270.414 0.00146484 272.664 2.25146 272.664 5.00146V35.0015C272.664 37.7515 270.414 40.0015 267.664 40.0015Z" fill="black"/>
<path d="M267.664 0.801465C269.984 0.801465 271.864 2.68146 271.864 5.00146V35.0015C271.864 37.3215 269.984 39.2015 267.664 39.2015H142.664C140.344 39.2015 138.464 37.3215 138.464 35.0015V5.00146C138.464 2.68146 140.344 0.801465 142.664 0.801465H267.664ZM267.664 0.00146484H142.664C139.914 0.00146484 137.664 2.25146 137.664 5.00146V35.0015C137.664 37.7515 139.914 40.0015 142.664 40.0015H267.664C270.414 40.0015 272.664 37.7515 272.664 35.0015V5.00146C272.664 2.25146 270.414 0.00146484 267.664 0.00146484Z" fill="#A6A6A6"/>
<path d="M205.804 21.7513C203.454 21.7513 201.534 23.5413 201.534 26.0013C201.534 28.4513 203.454 30.2513 205.804 30.2513C208.154 30.2513 210.074 28.4513 210.074 26.0013C210.074 23.5413 208.154 21.7513 205.804 21.7513ZM205.804 28.5813C204.514 28.5813 203.404 27.5213 203.404 26.0013C203.404 24.4713 204.514 23.4213 205.804 23.4213C207.094 23.4213 208.204 24.4713 208.204 26.0013C208.204 27.5213 207.084 28.5813 205.804 28.5813ZM196.484 21.7513C194.134 21.7513 192.214 23.5413 192.214 26.0013C192.214 28.4513 194.134 30.2513 196.484 30.2513C198.834 30.2513 200.754 28.4513 200.754 26.0013C200.754 23.5413 198.834 21.7513 196.484 21.7513ZM196.484 28.5813C195.194 28.5813 194.084 27.5213 194.084 26.0013C194.084 24.4713 195.194 23.4213 196.484 23.4213C197.774 23.4213 198.884 24.4713 198.884 26.0013C198.884 27.5213 197.774 28.5813 196.484 28.5813ZM185.404 23.0613V24.8613H189.724C189.594 25.8713 189.254 26.6213 188.744 27.1313C188.114 27.7613 187.134 28.4513 185.414 28.4513C182.754 28.4513 180.674 26.3113 180.674 23.6513C180.674 20.9913 182.754 18.8513 185.414 18.8513C186.844 18.8513 187.894 19.4113 188.664 20.1413L189.934 18.8713C188.854 17.8413 187.424 17.0513 185.404 17.0513C181.764 17.0513 178.704 20.0113 178.704 23.6613C178.704 27.3013 181.764 30.2713 185.404 30.2713C187.374 30.2713 188.854 29.6313 190.014 28.4213C191.204 27.2313 191.574 25.5513 191.574 24.2013C191.574 23.7813 191.544 23.3913 191.474 23.0713H185.404V23.0613ZM230.714 24.4613C230.364 23.5113 229.284 21.7513 227.074 21.7513C224.884 21.7513 223.064 23.4713 223.064 26.0013C223.064 28.3813 224.864 30.2513 227.284 30.2513C229.234 30.2513 230.364 29.0613 230.824 28.3713L229.374 27.4013C228.894 28.1113 228.234 28.5813 227.284 28.5813C226.334 28.5813 225.654 28.1413 225.224 27.2913L230.914 24.9413L230.714 24.4613ZM224.914 25.8813C224.864 24.2413 226.184 23.4013 227.134 23.4013C227.874 23.4013 228.504 23.7713 228.714 24.3013L224.914 25.8813ZM220.294 30.0013H222.164V17.5013H220.294V30.0013ZM217.234 22.7013H217.164C216.744 22.2013 215.944 21.7513 214.924 21.7513C212.794 21.7513 210.844 23.6213 210.844 26.0213C210.844 28.4013 212.794 30.2613 214.924 30.2613C215.934 30.2613 216.744 29.8113 217.164 29.2913H217.224V29.9013C217.224 31.5313 216.354 32.4013 214.954 32.4013C213.814 32.4013 213.104 31.5813 212.814 30.8913L211.184 31.5713C211.654 32.7013 212.894 34.0813 214.954 34.0813C217.144 34.0813 218.994 32.7913 218.994 29.6513V22.0113H217.224V22.7013H217.234ZM215.084 28.5813C213.794 28.5813 212.714 27.5013 212.714 26.0213C212.714 24.5213 213.794 23.4313 215.084 23.4313C216.354 23.4313 217.354 24.5313 217.354 26.0213C217.364 27.5013 216.364 28.5813 215.084 28.5813ZM239.474 17.5013H235.004V30.0013H236.874V25.2613H239.484C241.554 25.2613 243.584 23.7613 243.584 21.3813C243.584 19.0013 241.534 17.5013 239.474 17.5013ZM239.514 23.5213H236.864V19.2313H239.514C240.914 19.2313 241.704 20.3913 241.704 21.3713C241.704 22.3513 240.914 23.5213 239.514 23.5213ZM251.054 21.7313C249.704 21.7313 248.304 22.3313 247.724 23.6413L249.384 24.3313C249.734 23.6413 250.394 23.4113 251.084 23.4113C252.044 23.4113 253.034 23.9913 253.044 25.0213V25.1513C252.704 24.9613 251.984 24.6713 251.094 24.6713C249.304 24.6713 247.494 25.6513 247.494 27.4813C247.494 29.1513 248.954 30.2313 250.594 30.2313C251.844 30.2313 252.544 29.6713 252.974 29.0113H253.034V29.9813H254.834V25.1913C254.844 22.9713 253.184 21.7313 251.054 21.7313ZM250.824 28.5813C250.214 28.5813 249.364 28.2713 249.364 27.5213C249.364 26.5613 250.424 26.1913 251.344 26.1913C252.164 26.1913 252.554 26.3713 253.044 26.6113C252.904 27.7613 251.904 28.5813 250.824 28.5813ZM261.404 22.0013L259.264 27.4213H259.204L256.984 22.0013H254.974L258.304 29.5813L256.404 33.7913H258.354L263.484 22.0013H261.404ZM244.604 30.0013H246.474V17.5013H244.604V30.0013Z" fill="white"/>
<path d="M148.104 7.54168C147.814 7.85168 147.644 8.33168 147.644 8.94168V31.0617C147.644 31.6817 147.814 32.1617 148.104 32.4617L148.174 32.5317L160.564 20.1517V20.0017V19.8517L148.174 7.47168L148.104 7.54168Z" fill="url(#paint0_linear_1_492)"/>
<path d="M164.693 24.2817L160.563 20.1517V20.0017V19.8517L164.693 15.7217L164.783 15.7717L169.673 18.5517C171.073 19.3417 171.073 20.6417 169.673 21.4417L164.783 24.2217L164.693 24.2817Z" fill="url(#paint1_linear_1_492)"/>
<path d="M164.784 24.2215L160.564 20.0015L148.104 32.4615C148.564 32.9515 149.324 33.0115 150.184 32.5215L164.784 24.2215Z" fill="url(#paint2_linear_1_492)"/>
<path d="M164.784 15.7815L150.174 7.48145C149.314 6.99145 148.554 7.05145 148.094 7.54145L160.564 20.0015L164.784 15.7815Z" fill="url(#paint3_linear_1_492)"/>
<path opacity="0.2" d="M164.694 24.1313L150.174 32.3813C149.364 32.8413 148.634 32.8113 148.174 32.3913L148.104 32.4613L148.174 32.5313C148.644 32.9513 149.364 32.9813 150.174 32.5213L164.784 24.2213L164.694 24.1313Z" fill="black"/>
<path opacity="0.12" d="M148.104 32.3214C147.814 32.0114 147.644 31.5314 147.644 30.9214V31.0714C147.644 31.6914 147.814 32.1714 148.104 32.4714L148.174 32.4014L148.104 32.3214Z" fill="black"/>
<path opacity="0.12" d="M169.674 21.3015L164.684 24.1315L164.774 24.2215L169.664 21.4415C170.364 21.0415 170.714 20.5215 170.714 20.0015C170.664 20.4715 170.314 20.9415 169.674 21.3015Z" fill="black"/>
<path opacity="0.25" d="M150.174 7.6214L169.674 18.7014C170.304 19.0614 170.664 19.5214 170.724 20.0014C170.724 19.4814 170.374 18.9514 169.674 18.5614L150.174 7.4814C148.774 6.6914 147.634 7.3514 147.634 8.9514V9.1014C147.634 7.4914 148.784 6.8314 150.174 7.6214Z" fill="white"/>
<path d="M179.774 14.2715H179.034V12.2615H179.624C180.144 11.8115 180.394 11.0515 180.384 9.96146V7.00146H184.394V12.2615H185.064V14.2715H184.324V13.0015H179.774V14.2715ZM181.164 9.97146C181.174 10.9215 180.984 11.6815 180.594 12.2715H183.624V7.74146H181.164V9.97146Z" fill="white" stroke="white" stroke-width="0.2" stroke-miterlimit="10"/>
<path d="M191.074 12.2216C190.484 12.8316 189.754 13.1316 188.874 13.1316C187.994 13.1316 187.264 12.8316 186.674 12.2216C186.084 11.6116 185.794 10.8716 185.794 10.0016C185.794 9.13158 186.084 8.38158 186.674 7.78158C187.264 7.17158 187.994 6.87158 188.874 6.87158C189.744 6.87158 190.474 7.17158 191.074 7.78158C191.664 8.39158 191.964 9.13158 191.964 10.0016C191.964 10.8816 191.664 11.6216 191.074 12.2216ZM187.244 11.7216C187.684 12.1716 188.234 12.3916 188.874 12.3916C189.514 12.3916 190.064 12.1716 190.504 11.7216C190.944 11.2716 191.174 10.7016 191.174 10.0016C191.174 9.30158 190.954 8.73158 190.504 8.28158C190.064 7.83158 189.514 7.61158 188.874 7.61158C188.234 7.61158 187.684 7.83158 187.244 8.28158C186.804 8.73158 186.574 9.30158 186.574 10.0016C186.574 10.7016 186.804 11.2716 187.244 11.7216Z" fill="white" stroke="white" stroke-width="0.2" stroke-miterlimit="10"/>
<path d="M195.845 13.1316C194.965 13.1316 194.225 12.8316 193.625 12.2316C193.025 11.6316 192.725 10.8916 192.725 9.99156C192.725 9.09156 193.025 8.35156 193.625 7.75156C194.225 7.15156 194.965 6.85156 195.845 6.85156C196.745 6.85156 197.485 7.18156 198.045 7.83156L197.505 8.35156C197.095 7.84156 196.545 7.59156 195.835 7.59156C195.185 7.59156 194.625 7.81156 194.175 8.25156C193.725 8.69156 193.505 9.27156 193.505 9.98156C193.505 10.6916 193.725 11.2716 194.175 11.7116C194.625 12.1516 195.175 12.3716 195.835 12.3716C196.555 12.3716 197.165 12.0816 197.675 11.5016L198.215 12.0416C197.945 12.3716 197.595 12.6316 197.185 12.8216C196.775 13.0416 196.325 13.1316 195.845 13.1316Z" fill="white" stroke="white" stroke-width="0.2" stroke-miterlimit="10"/>
<path d="M201.345 13.0015H200.575V7.74146H198.895V7.00146H203.015V7.74146H201.335V13.0015H201.345Z" fill="white" stroke="white" stroke-width="0.2" stroke-miterlimit="10"/>
<path d="M208.314 7.00146L206.044 12.0615C205.734 12.7715 205.264 13.1315 204.644 13.1315C204.464 13.1315 204.264 13.0915 204.044 13.0015L204.244 12.2915C204.374 12.3615 204.504 12.4015 204.644 12.4015C204.824 12.4015 204.964 12.3715 205.064 12.3015C205.164 12.2315 205.254 12.1015 205.334 11.9215L205.554 11.4415L203.534 7.00146H204.444L205.924 10.4415H205.954L207.404 7.00146H208.314Z" fill="white" stroke="white" stroke-width="0.2" stroke-miterlimit="10"/>
<path d="M209.185 13.0015V7.00146H213.525V13.0015H212.755V7.74146H209.955V13.0015H209.185Z" fill="white" stroke="white" stroke-width="0.2" stroke-miterlimit="10"/>
<path d="M214.895 13.0015V7.00146H215.665V9.57146H218.665V7.00146H219.435V13.0015H218.665V10.2915H215.665V13.0015H214.895Z" fill="white" stroke="white" stroke-width="0.2" stroke-miterlimit="10"/>
<path d="M225.724 12.2216C225.134 12.8316 224.404 13.1316 223.524 13.1316C222.644 13.1316 221.914 12.8316 221.324 12.2216C220.734 11.6116 220.444 10.8716 220.444 10.0016C220.444 9.13158 220.734 8.38158 221.324 7.78158C221.914 7.17158 222.644 6.87158 223.524 6.87158C224.394 6.87158 225.124 7.17158 225.724 7.78158C226.314 8.39158 226.614 9.13158 226.614 10.0016C226.604 10.8816 226.314 11.6216 225.724 12.2216ZM221.894 11.7216C222.334 12.1716 222.884 12.3916 223.524 12.3916C224.164 12.3916 224.714 12.1716 225.154 11.7216C225.594 11.2716 225.824 10.7016 225.824 10.0016C225.824 9.30158 225.604 8.73158 225.154 8.28158C224.714 7.83158 224.164 7.61158 223.524 7.61158C222.884 7.61158 222.334 7.83158 221.894 8.28158C221.454 8.73158 221.224 9.30158 221.224 10.0016C221.224 10.7016 221.444 11.2716 221.894 11.7216Z" fill="white" stroke="white" stroke-width="0.2" stroke-miterlimit="10"/>
<path d="M229.754 13.0015V7.00146H231.924C232.394 7.00146 232.804 7.16146 233.144 7.46146C233.484 7.77146 233.664 8.16146 233.664 8.63146C233.664 8.92146 233.594 9.17146 233.444 9.38146C233.294 9.60146 233.104 9.76147 232.854 9.87147V9.90146C233.154 10.0015 233.394 10.1715 233.584 10.4215C233.774 10.6715 233.874 10.9515 233.874 11.2815C233.874 11.7715 233.694 12.1815 233.334 12.5015C232.974 12.8215 232.544 12.9915 232.054 12.9915H229.754V13.0015ZM230.524 9.57146H231.924C232.214 9.57146 232.444 9.47147 232.624 9.28147C232.804 9.09147 232.884 8.88146 232.884 8.65146C232.884 8.42146 232.804 8.21147 232.624 8.02147C232.454 7.83147 232.234 7.73146 231.954 7.73146H230.524V9.57146ZM230.524 12.2615H232.074C232.374 12.2615 232.614 12.1615 232.794 11.9515C232.974 11.7415 233.074 11.5215 233.074 11.2715C233.074 11.0215 232.984 10.8015 232.784 10.6015C232.594 10.4015 232.344 10.2915 232.034 10.2915H230.514V12.2615H230.524Z" fill="white" stroke="white" stroke-width="0.2" stroke-miterlimit="10"/>
</g>
<defs>
<linearGradient id="paint0_linear_1_492" x1="159.463" y1="8.71138" x2="142.681" y2="25.4938" gradientUnits="userSpaceOnUse">
<stop stop-color="#00A0FF"/>
<stop offset="0.00657445" stop-color="#00A1FF"/>
<stop offset="0.2601" stop-color="#00BEFF"/>
<stop offset="0.5122" stop-color="#00D2FF"/>
<stop offset="0.7604" stop-color="#00DFFF"/>
<stop offset="1" stop-color="#00E3FF"/>
</linearGradient>
<linearGradient id="paint1_linear_1_492" x1="171.498" y1="20.0031" x2="147.301" y2="20.0031" gradientUnits="userSpaceOnUse">
<stop stop-color="#FFE000"/>
<stop offset="0.4087" stop-color="#FFBD00"/>
<stop offset="0.7754" stop-color="#FFA500"/>
<stop offset="1" stop-color="#FF9C00"/>
</linearGradient>
<linearGradient id="paint2_linear_1_492" x1="162.491" y1="22.2976" x2="139.732" y2="45.0559" gradientUnits="userSpaceOnUse">
<stop stop-color="#FF3A44"/>
<stop offset="1" stop-color="#C31162"/>
</linearGradient>
<linearGradient id="paint3_linear_1_492" x1="144.961" y1="0.177652" x2="155.124" y2="10.3402" gradientUnits="userSpaceOnUse">
<stop stop-color="#32A071"/>
<stop offset="0.0685" stop-color="#2DA771"/>
<stop offset="0.4762" stop-color="#15CF74"/>
<stop offset="0.8009" stop-color="#06E775"/>
<stop offset="1" stop-color="#00F076"/>
</linearGradient>
<clipPath id="clip0_1_492">
<rect width="119.664" height="40" fill="white" transform="translate(0 0.00146484)"/>
</clipPath>
<clipPath id="clip1_1_492">
<rect width="135" height="40" fill="white" transform="translate(137.664 0.00146484)"/>
</clipPath>
</defs>
</svg>
