<svg width="60" height="60" viewBox="0 0 60 60" fill="none" xmlns="http://www.w3.org/2000/svg">
<path fill-rule="evenodd" clip-rule="evenodd" d="M35 52.5L37.7864 50H60V51.25C54.9077 52.0882 49.755 52.5062 44.5942 52.5H35ZM10.0135 7.5L12.4404 30L14.9066 29.5549L12.7978 10H47.2025L44.5395 34.6885C44.4828 35.2208 44.3778 35.7433 44.2274 36.25L46.3934 37.6464C46.7112 36.7855 46.9249 35.8827 47.0248 34.9565L47.29 32.5H48.292C50.7592 32.5 53.1393 31.588 54.9748 29.9393C56.81 28.2905 57.9712 26.0215 58.2347 23.5685L58.681 19.4185C58.7748 18.5464 58.684 17.6643 58.4145 16.8295C58.145 15.9948 57.7027 15.2262 57.1165 14.5736C56.5305 13.921 55.8135 13.3991 55.0125 13.0419C54.2112 12.6846 53.344 12.5 52.4668 12.5H49.4473L49.9865 7.5H10.0135ZM49.1775 15H52.4668C52.993 15 53.5132 15.1108 53.9937 15.3251C54.4745 15.5394 54.9045 15.8524 55.2563 16.2438C55.6078 16.6352 55.8732 17.0963 56.035 17.597C56.1967 18.0977 56.2515 18.6268 56.1952 19.15L55.75 23.3015C55.555 25.1425 54.6847 26.846 53.3075 28.083C51.9302 29.3203 50.1432 30.003 48.292 30H47.5595L49.1775 15Z" fill="#FEC110"/>
<mask id="path-2-inside-1_41_1469" fill="white">
<path d="M7.20775 48.4616L9.00073 50.2547C10.5714 48.6564 12.4446 47.3869 14.5111 46.5204C16.5775 45.6539 18.796 45.2076 21.0367 45.2076C23.2775 45.2076 25.496 45.6539 27.5625 46.5204C29.629 47.3869 31.5022 48.6564 33.0727 50.2547L34.8657 48.4614C33.054 46.6379 30.8992 45.1907 28.526 44.2032C26.1525 43.2157 23.6075 42.7071 21.0367 42.7071C18.4662 42.7071 15.9209 43.2157 13.5475 44.2032C11.1742 45.1907 9.01957 46.6379 7.20775 48.4614V48.4616ZM14.438 55.6919L16.1865 57.4404C16.821 56.7992 17.5762 56.2899 18.4087 55.9424C19.2412 55.5949 20.1345 55.4162 21.0365 55.4162C21.9387 55.4162 22.8317 55.5949 23.6642 55.9424C24.4967 56.2899 25.252 56.7992 25.8865 57.4404L27.6347 55.6919C26.7752 54.8132 25.7487 54.1147 24.6155 53.6379C23.4822 53.1612 22.2655 52.9156 21.036 52.9156C19.8067 52.9156 18.5897 53.1612 17.4565 53.6379C16.3232 54.1147 15.2968 54.8132 14.4373 55.6919H14.438ZM0 41.2539L1.78675 43.0406C4.3041 40.4934 7.30192 38.4711 10.6065 37.0909C13.9111 35.7109 17.4567 35.0002 21.038 35.0002C24.6192 35.0002 28.165 35.7109 31.4695 37.0909C34.774 38.4711 37.772 40.4934 40.2892 43.0406L42.075 41.2549C39.319 38.4804 36.0415 36.2786 32.431 34.7761C28.8207 33.2735 24.9487 32.5 21.0382 32.5C17.1275 32.5 13.2556 33.2735 9.64515 34.7761C6.03473 36.2786 2.7572 38.4804 0.00124991 41.2549L0 41.2539Z"/>
</mask>
<path d="M7.20775 48.4616L9.00073 50.2547C10.5714 48.6564 12.4446 47.3869 14.5111 46.5204C16.5775 45.6539 18.796 45.2076 21.0367 45.2076C23.2775 45.2076 25.496 45.6539 27.5625 46.5204C29.629 47.3869 31.5022 48.6564 33.0727 50.2547L34.8657 48.4614C33.054 46.6379 30.8992 45.1907 28.526 44.2032C26.1525 43.2157 23.6075 42.7071 21.0367 42.7071C18.4662 42.7071 15.9209 43.2157 13.5475 44.2032C11.1742 45.1907 9.01957 46.6379 7.20775 48.4614V48.4616ZM14.438 55.6919L16.1865 57.4404C16.821 56.7992 17.5762 56.2899 18.4087 55.9424C19.2412 55.5949 20.1345 55.4162 21.0365 55.4162C21.9387 55.4162 22.8317 55.5949 23.6642 55.9424C24.4967 56.2899 25.252 56.7992 25.8865 57.4404L27.6347 55.6919C26.7752 54.8132 25.7487 54.1147 24.6155 53.6379C23.4822 53.1612 22.2655 52.9156 21.036 52.9156C19.8067 52.9156 18.5897 53.1612 17.4565 53.6379C16.3232 54.1147 15.2968 54.8132 14.4373 55.6919H14.438ZM0 41.2539L1.78675 43.0406C4.3041 40.4934 7.30192 38.4711 10.6065 37.0909C13.9111 35.7109 17.4567 35.0002 21.038 35.0002C24.6192 35.0002 28.165 35.7109 31.4695 37.0909C34.774 38.4711 37.772 40.4934 40.2892 43.0406L42.075 41.2549C39.319 38.4804 36.0415 36.2786 32.431 34.7761C28.8207 33.2735 24.9487 32.5 21.0382 32.5C17.1275 32.5 13.2556 33.2735 9.64515 34.7761C6.03473 36.2786 2.7572 38.4804 0.00124991 41.2549L0 41.2539Z" fill="#FEC110"/>
<path d="M7.20775 48.4616H6.20775V48.8759L6.50064 49.1688L7.20775 48.4616ZM9.00073 50.2547L8.29361 50.9618L9.00691 51.6751L9.71397 50.9556L9.00073 50.2547ZM14.5111 46.5204L14.8977 47.4426L14.8978 47.4426L14.5111 46.5204ZM33.0727 50.2547L32.3595 50.9555L33.0666 51.6751L33.7799 50.9617L33.0727 50.2547ZM34.8657 48.4614L35.5729 49.1685L36.2776 48.4636L35.5751 47.7566L34.8657 48.4614ZM28.526 44.2032L28.9101 43.2799L28.9101 43.2799L28.526 44.2032ZM7.20775 48.4614L6.49838 47.7566L6.20775 48.0491V48.4614H7.20775ZM14.438 55.6919L15.1451 54.9848L14.8522 54.6919H14.438V55.6919ZM16.1865 57.4404L15.4794 58.1475L16.1902 58.8584L16.8973 58.1438L16.1865 57.4404ZM25.8865 57.4404L25.1756 58.1438L25.8828 58.8584L26.5936 58.1475L25.8865 57.4404ZM27.6347 55.6919L28.3419 56.399L29.0411 55.6996L28.3496 54.9927L27.6347 55.6919ZM14.4373 55.6919L13.7224 54.9926L12.0602 56.6919H14.4373V55.6919ZM0 41.2539L0.624332 40.4727L-0.707107 41.961L0 41.2539ZM1.78675 43.0406L1.07964 43.7478L1.79094 44.4591L2.49802 43.7436L1.78675 43.0406ZM10.6065 37.0909L10.2212 36.1681L10.2211 36.1682L10.6065 37.0909ZM31.4695 37.0909L31.8549 36.1682L31.8548 36.1681L31.4695 37.0909ZM40.2892 43.0406L39.5779 43.7436L40.285 44.4591L40.9963 43.7478L40.2892 43.0406ZM42.075 41.2549L42.7821 41.962L43.4868 41.2573L42.7844 40.5502L42.075 41.2549ZM32.431 34.7761L32.0467 35.6993L32.0468 35.6993L32.431 34.7761ZM9.64515 34.7761L10.0294 35.6993L10.0294 35.6993L9.64515 34.7761ZM0.00124991 41.2549L-0.623082 42.0361L0.0781243 42.5965L0.710724 41.9596L0.00124991 41.2549ZM6.50064 49.1688L8.29361 50.9618L9.70784 49.5475L7.91486 47.7545L6.50064 49.1688ZM9.71397 50.9556C11.1915 49.452 12.9538 48.2577 14.8977 47.4426L14.1244 45.5982C11.9354 46.5161 9.95117 47.8608 8.28748 49.5537L9.71397 50.9556ZM14.8978 47.4426C16.8417 46.6275 18.9287 46.2076 21.0367 46.2076V44.2076C18.6632 44.2076 16.3132 44.6803 14.1243 45.5982L14.8978 47.4426ZM21.0367 46.2076C23.1447 46.2076 25.2317 46.6275 27.1758 47.4426L27.9492 45.5982C25.7602 44.6803 23.4102 44.2076 21.0367 44.2076V46.2076ZM27.1758 47.4426C29.1198 48.2578 30.882 49.452 32.3595 50.9555L33.786 49.5538C32.1224 47.8608 30.1381 46.516 27.9492 45.5982L27.1758 47.4426ZM33.7799 50.9617L35.5729 49.1685L34.1586 47.7543L32.3656 49.5476L33.7799 50.9617ZM35.5751 47.7566C33.6704 45.8395 31.4051 44.318 28.9101 43.2799L28.1418 45.1264C30.3933 46.0633 32.4375 47.4363 34.1563 49.1662L35.5751 47.7566ZM28.9101 43.2799C26.4149 42.2417 23.7394 41.7071 21.0367 41.7071V43.7071C23.4756 43.7071 25.89 44.1896 28.1418 45.1264L28.9101 43.2799ZM21.0367 41.7071C18.3343 41.7071 15.6584 42.2417 13.1634 43.2799L13.9317 45.1264C16.1833 44.1896 18.5981 43.7071 21.0367 43.7071V41.7071ZM13.1634 43.2799C10.6683 44.318 8.40313 45.8395 6.49838 47.7566L7.91712 49.1662C9.63602 47.4363 11.6801 46.0633 13.9317 45.1264L13.1634 43.2799ZM6.20775 48.4614V48.4616H8.20775V48.4614H6.20775ZM13.7309 56.399L15.4794 58.1475L16.8936 56.7333L15.1451 54.9848L13.7309 56.399ZM16.8973 58.1438C17.4389 57.5964 18.0835 57.1618 18.7939 56.8652L18.0235 55.0196C17.0689 55.418 16.203 56.0019 15.4756 56.737L16.8973 58.1438ZM18.7939 56.8652C19.5043 56.5687 20.2666 56.4162 21.0365 56.4162V54.4162C20.0024 54.4162 18.9782 54.6211 18.0235 55.0196L18.7939 56.8652ZM21.0365 56.4162C21.8066 56.4162 22.5687 56.5687 23.279 56.8652L24.0494 55.0196C23.0948 54.6211 22.0708 54.4162 21.0365 54.4162V56.4162ZM23.279 56.8652C23.9894 57.1618 24.634 57.5964 25.1756 58.1438L26.5973 56.737C25.8699 56.0019 25.004 55.418 24.0494 55.0196L23.279 56.8652ZM26.5936 58.1475L28.3419 56.399L26.9276 54.9848L25.1793 56.7333L26.5936 58.1475ZM28.3496 54.9927C27.3971 54.0188 26.2594 53.2446 25.0033 52.7161L24.2277 54.5597C25.2381 54.9847 26.1534 55.6075 26.9198 56.3911L28.3496 54.9927ZM25.0033 52.7161C23.7472 52.1877 22.3986 51.9156 21.036 51.9156V53.9156C22.1323 53.9156 23.2172 54.1346 24.2277 54.5597L25.0033 52.7161ZM21.036 51.9156C19.6736 51.9156 18.3247 52.1877 17.0687 52.7161L17.8442 54.5597C18.8547 54.1346 19.9399 53.9156 21.036 53.9156V51.9156ZM17.0687 52.7161C15.8126 53.2446 14.675 54.0188 13.7224 54.9926L15.1521 56.3912C15.9187 55.6075 16.8339 54.9847 17.8442 54.5597L17.0687 52.7161ZM14.4373 56.6919H14.438V54.6919H14.4373V56.6919ZM-0.707107 41.961L1.07964 43.7478L2.49386 42.3335L0.707107 40.5468L-0.707107 41.961ZM2.49802 43.7436C4.92235 41.2904 7.80941 39.3429 10.9919 38.0136L10.2211 36.1682C6.79444 37.5994 3.68585 39.6964 1.07548 42.3377L2.49802 43.7436ZM10.9919 38.0137C14.1744 36.6846 17.589 36.0002 21.038 36.0002V34.0002C17.3244 34.0002 13.6478 34.7372 10.2212 36.1681L10.9919 38.0137ZM21.038 36.0002C24.4869 36.0002 27.9017 36.6846 31.0841 38.0137L31.8548 36.1681C28.4283 34.7372 24.7515 34.0002 21.038 34.0002V36.0002ZM31.0841 38.0136C34.2665 39.3429 37.1537 41.2905 39.5779 43.7436L41.0005 42.3377C38.3902 39.6963 35.2815 37.5994 31.8549 36.1682L31.0841 38.0136ZM40.9963 43.7478L42.7821 41.962L41.3679 40.5478L39.5821 42.3335L40.9963 43.7478ZM42.7844 40.5502C39.9355 37.6821 36.5474 35.4061 32.8152 33.8529L32.0468 35.6993C35.5355 37.1512 38.7025 39.2787 41.3655 41.9596L42.7844 40.5502ZM32.8152 33.8529C29.0832 32.2996 25.0806 31.5 21.0382 31.5V33.5C24.8168 33.5 28.5583 34.2475 32.0467 35.6993L32.8152 33.8529ZM21.0382 31.5C16.9956 31.5 12.9931 32.2996 9.26092 33.8529L10.0294 35.6993C13.518 34.2475 17.2594 33.5 21.0382 33.5V31.5ZM9.26093 33.8529C5.52875 35.4061 2.14069 37.6821 -0.708225 40.5502L0.710724 41.9596C3.37371 39.2787 6.5407 37.1512 10.0294 35.6993L9.26093 33.8529ZM0.625581 40.4737L0.624332 40.4727L-0.624332 42.0351L-0.623082 42.0361L0.625581 40.4737Z" fill="#FEC110" mask="url(#path-2-inside-1_41_1469)"/>
</svg>
