<svg width="16" height="16" viewBox="0 0 16 16" fill="none" xmlns="http://www.w3.org/2000/svg">
<g clip-path="url(#clip0_153_2399)">
<path fill-rule="evenodd" clip-rule="evenodd" d="M7.99556 1.00134C8.12244 1.00134 8.23832 1.07338 8.29447 1.18716L10.2742 5.1986L14.7007 5.84012C14.8263 5.85833 14.9307 5.94632 14.9699 6.06706C15.0091 6.18779 14.9764 6.32032 14.8854 6.40887L11.6777 9.53119L12.4341 13.9403C12.4556 14.0654 12.4041 14.1919 12.3014 14.2664C12.1986 14.341 12.0625 14.3507 11.9502 14.2916L8.00005 12.21L4.04068 14.2917C3.92837 14.3508 3.79228 14.3409 3.68963 14.2663C3.58698 14.1918 3.53557 14.0654 3.55702 13.9403L4.31337 9.53119L1.10572 6.40887C1.01476 6.32032 0.981982 6.18779 1.02119 6.06706C1.0604 5.94632 1.16478 5.85833 1.29042 5.84012L5.7169 5.1986L7.69665 1.18716C7.7528 1.07338 7.86868 1.00134 7.99556 1.00134Z" fill="#FEC110" stroke="#FEC110" stroke-linecap="round" stroke-linejoin="round"/>
</g>
<defs>
<clipPath id="clip0_153_2399">
<rect width="16" height="16" fill="white"/>
</clipPath>
</defs>
</svg>
