<svg width="60" height="60" viewBox="0 0 60 60" fill="none" xmlns="http://www.w3.org/2000/svg">
<path d="M30 26.075C31.8955 26.075 33.7485 25.513 35.3245 24.4599C36.9005 23.4068 38.129 21.91 38.8543 20.1588C39.5798 18.4076 39.7695 16.4806 39.3995 14.6216C39.0297 12.7625 38.117 11.0549 36.7765 9.71465C35.4362 8.37437 33.7285 7.4617 31.8695 7.092C30.0102 6.72232 28.0832 6.91222 26.3322 7.63772C24.581 8.36322 23.0843 9.59172 22.0314 11.1678C20.9785 12.744 20.4166 14.597 20.4168 16.4925C20.4199 19.033 21.4306 21.4687 23.2272 23.2651C25.0237 25.0615 27.4595 26.072 30 26.075ZM30 9.40822C31.401 9.40817 32.7705 9.82355 33.9352 10.6018C35.1002 11.3801 36.0082 12.4863 36.5445 13.7806C37.0805 15.0749 37.221 16.4991 36.9478 17.8732C36.6745 19.2473 36 20.5094 35.0095 21.5001C34.0188 22.4908 32.7567 23.1656 31.3827 23.439C30.0087 23.7124 28.5845 23.5723 27.29 23.0362C25.9958 22.5002 24.8894 21.5924 24.1109 20.4277C23.3325 19.2629 22.9169 17.8934 22.9168 16.4925C22.9189 14.6145 23.6659 12.8141 24.9938 11.4862C26.3218 10.1584 28.122 9.4114 30 9.40922V9.40822ZM49.2675 38.9775C45.529 35.2365 40.7762 32.6732 35.5965 31.6047L30 40.1897L24.4035 31.6057C19.2239 32.6745 14.471 35.2375 10.7325 38.9785L10 39.711V52.5H50V39.711L49.2675 38.9775ZM47.5 50H12.5V40.7572C12.5277 40.7322 12.8 40.4625 12.828 40.4375C15.7784 37.5737 19.409 35.5082 23.378 34.4347L26.293 38.843L28.8878 42.7772L30 44.4575L31.125 42.7625L33.6908 38.8712L36.623 34.4347C40.592 35.508 44.2227 37.5737 47.173 40.4375C47.2012 40.4625 47.473 40.732 47.501 40.7572L47.5 50Z" fill="#FEC110"/>
</svg>
