<svg width="60" height="60" viewBox="0 0 60 60" fill="none" xmlns="http://www.w3.org/2000/svg">
<path d="M56.6475 12.4849L59.7048 10.2891C59.499 9.312 59.1468 8.37162 58.6598 7.49987C58.1485 6.64207 57.5105 5.86663 56.767 5.19988L53.337 6.74987L53.31 6.73463L52.9378 2.98937C51.0338 2.33687 48.9668 2.33687 47.0628 2.98937L46.689 6.73487L46.662 6.74987L43.232 5.19988C42.4888 5.86673 41.8505 6.64215 41.3393 7.49987C40.8523 8.37152 40.5 9.31183 40.2943 10.2889L43.3515 12.4846V12.5149L40.2943 14.7106C40.5 15.6877 40.8523 16.6281 41.3393 17.4999C41.8505 18.3576 42.4888 19.133 43.232 19.7999L46.662 18.2499L46.689 18.2649L47.0613 22.0104C48.9653 22.6629 51.0323 22.6629 52.9363 22.0104L53.3093 18.2651L53.337 18.2499L56.767 19.7999C57.5103 19.133 58.1483 18.3575 58.6598 17.4999C59.1468 16.6283 59.499 15.6881 59.7048 14.7111L56.6475 12.5149V12.4849ZM57.5405 15.4649C57.272 16.2277 56.864 16.934 56.3375 17.5479L54.1085 16.5411L53.2085 16.1609L52.3765 16.6394L51.541 17.1199L51.4458 18.0789L51.203 20.5129C50.4083 20.6619 49.5928 20.6619 48.798 20.5129L48.5553 18.0789L48.4338 17.1039L47.5973 16.6249L46.7653 16.1464L45.8903 16.5416L43.6613 17.5486C43.1348 16.9347 42.7268 16.2283 42.4583 15.4654L44.445 14.0384L45.2263 13.4471V11.5229L44.445 10.9616L42.4583 9.53488C42.7268 8.77195 43.1348 8.06555 43.6613 7.45162L45.8903 8.45863L46.7963 8.84088L47.6305 8.35612L48.4595 7.87488L48.5543 6.92113L48.797 4.48712C49.5918 4.33845 50.4073 4.33845 51.202 4.48712L51.4448 6.92113L51.567 7.89813L52.4055 8.37812L53.2368 8.85312L54.1085 8.45913L56.3375 7.45238C56.8643 8.06615 57.272 8.77248 57.5405 9.53538L55.5538 10.9624L54.7725 11.5536V13.4771L55.5538 14.0384L57.5405 15.4649ZM49.9995 10.6249C49.6288 10.6249 49.2663 10.7348 48.9578 10.9409C48.6495 11.1469 48.4093 11.4397 48.2673 11.7824C48.1253 12.125 48.0883 12.5019 48.1605 12.8657C48.233 13.2294 48.4115 13.5635 48.6738 13.8257C48.936 14.0879 49.27 14.2665 49.6338 14.3388C49.9975 14.4112 50.3745 14.3741 50.717 14.2322C51.0598 14.0902 51.3525 13.8499 51.5585 13.5416C51.7645 13.2332 51.8745 12.8707 51.8745 12.4999C51.8745 12.0026 51.677 11.5257 51.3253 11.1741C50.9738 10.8224 50.4968 10.6249 49.9995 10.6249ZM15.9023 39.6692C15.2391 39.6695 14.5909 39.866 14.0395 40.2345C13.4882 40.603 13.0584 41.1268 12.8047 41.7395C12.551 42.352 12.4846 43.0262 12.614 43.6767C12.7434 44.327 13.0628 44.9245 13.5317 45.3935C14.0006 45.8623 14.5981 46.1815 15.2485 46.311C15.8989 46.4403 16.5731 46.374 17.1857 46.12C17.7984 45.8662 18.3221 45.4365 18.6905 44.8852C19.0589 44.3337 19.2555 43.6855 19.2555 43.0223C19.2556 42.582 19.1689 42.146 19.0004 41.7392C18.8318 41.3322 18.5848 40.9627 18.2735 40.6512C17.9621 40.34 17.5924 40.093 17.1855 39.9245C16.7787 39.756 16.3426 39.6692 15.9023 39.6692ZM15.9023 44.3752C15.6347 44.3752 15.3731 44.296 15.1506 44.1472C14.9281 43.9987 14.7547 43.7872 14.6523 43.5402C14.5499 43.293 14.5231 43.0207 14.5753 42.7585C14.6275 42.496 14.7564 42.2547 14.9456 42.0657C15.1348 41.8765 15.3759 41.7475 15.6383 41.6953C15.9008 41.6433 16.1728 41.67 16.4201 41.7723C16.6673 41.8748 16.8786 42.0483 17.0273 42.2708C17.1759 42.4933 17.2553 42.7548 17.2553 43.0223C17.2547 43.381 17.1119 43.7247 16.8583 43.9782C16.6047 44.2317 16.2609 44.3745 15.9023 44.3748V44.3752ZM37.1828 39.6692C36.5195 39.6692 35.8713 39.866 35.32 40.2343C34.7685 40.6028 34.3388 41.1265 34.0848 41.739C33.831 42.3518 33.7645 43.026 33.894 43.6763C34.0233 44.3268 34.3425 44.9243 34.8115 45.3933C35.2805 45.8623 35.8778 46.1815 36.5283 46.311C37.1788 46.4403 37.853 46.374 38.4655 46.1202C39.0783 45.8665 39.602 45.4367 39.9705 44.8852C40.3388 44.3337 40.5355 43.6855 40.5355 43.0223C40.5355 42.1333 40.1823 41.2805 39.5535 40.6515C38.9248 40.0227 38.072 39.6695 37.1828 39.6692ZM37.1828 44.3752C36.9153 44.3752 36.6538 44.296 36.4313 44.1472C36.2088 43.9985 36.0353 43.7873 35.933 43.54C35.8305 43.2928 35.8038 43.0208 35.856 42.7583C35.9083 42.4958 36.0373 42.2548 36.2265 42.0655C36.4158 41.8763 36.6568 41.7475 36.9193 41.6953C37.1815 41.6433 37.4538 41.67 37.7008 41.7725C37.948 41.8747 38.1593 42.0483 38.308 42.2708C38.4568 42.4933 38.536 42.7548 38.536 43.0223C38.5355 43.381 38.3928 43.7248 38.139 43.9785C37.8853 44.232 37.5415 44.3745 37.1828 44.3748V44.3752ZM42.671 26.0847C42.4155 25.1322 41.8743 24.2807 41.12 23.6451C40.3658 23.0094 39.435 22.6202 38.4528 22.5299C38.3058 22.5101 37.9763 22.4999 37.8245 22.4999H15.2625C15.1278 22.4999 14.8125 22.5079 14.6815 22.5236C13.6899 22.6048 12.7476 22.9906 11.9838 23.6281C11.2199 24.2657 10.6718 25.1237 10.4145 26.0847C10.0973 27.2597 9.83604 28.447 9.57604 29.6347H3.57129V35.2233L8.35904 36.8858C8.02804 39.5775 7.84176 42.2848 7.80104 44.9963C7.79504 45.317 7.79254 46.1263 7.79254 46.4463V54.8333C7.79254 55.05 7.83521 55.2645 7.91814 55.4647C8.00106 55.665 8.12259 55.847 8.27581 56C8.42904 56.1532 8.61094 56.2748 8.81111 56.3578C9.01129 56.4408 9.22586 56.4832 9.44254 56.4832H13.2198C13.4365 56.4832 13.651 56.4408 13.8512 56.3578C14.0514 56.2748 14.2333 56.1532 14.3865 56C14.5397 55.847 14.6613 55.665 14.7442 55.4647C14.8271 55.2645 14.8698 55.05 14.8698 54.8333V52.4998H38.2158V54.834C38.2158 55.2717 38.3895 55.6915 38.699 56.0007C39.0085 56.3102 39.4283 56.484 39.8658 56.484H43.6433C44.081 56.484 44.5005 56.3102 44.81 56.0007C45.1195 55.6915 45.2933 55.2717 45.2933 54.834V46.4465C45.2933 46.1305 45.2908 45.3265 45.2853 45.0105C45.245 42.2942 45.0585 39.582 44.7268 36.8855L49.5145 35.2233V29.6345H43.509C43.2495 28.447 42.9878 27.2597 42.671 26.0847ZM8.65554 34.6065L5.82104 33.6225V31.8845H9.11929C8.94954 32.7895 8.79154 33.696 8.65554 34.6065ZM12.8278 26.7355C12.9514 26.2722 13.2153 25.8582 13.5833 25.5505C13.9513 25.2427 14.4055 25.0565 14.8835 25.0167L15.2633 24.9999H37.8245C37.9038 24.9999 38.0638 25.0022 38.1625 25.012C38.6458 25.0487 39.106 25.2333 39.4808 25.541C39.8553 25.8485 40.126 26.264 40.256 26.7307C40.9813 29.4472 41.55 32.2033 41.959 34.9848H11.1263C11.5353 32.2048 12.1034 29.4505 12.8278 26.7355ZM40.5475 54.1517L40.5355 49.9998H12.5495L12.5373 54.1517H10.2925C10.2925 54.1517 10.2963 45.306 10.301 45.0413C10.3402 42.4595 10.5155 39.8815 10.826 37.318H42.2585C42.5693 39.8798 42.7445 42.4562 42.7835 45.0362L42.7908 54.1517H40.5475ZM47.264 31.8845V33.6225L44.4295 34.6068C44.2933 33.6963 44.1353 32.7895 43.9655 31.8845H47.264Z" fill="#FEC110"/>
</svg>
