<svg width="60" height="60" viewBox="0 0 60 60" fill="none" xmlns="http://www.w3.org/2000/svg">
<path d="M30 2.31079L7.5 11.2183V30.15C7.50732 34.9758 8.78108 39.7153 11.194 43.8945C13.6069 48.0738 17.0744 51.5465 21.25 53.9657L30 59.016L38.75 53.9647C42.9255 51.5457 46.393 48.073 48.8058 43.894C51.2188 39.7148 52.4925 34.9758 52.5 30.15V11.2183L30 2.31079ZM50 30.15C49.9932 34.537 48.8353 38.8455 46.6418 42.6447C44.4483 46.4437 41.296 49.6007 37.5 51.8L30 56.1298L22.5 51.8C18.704 49.6007 15.5517 46.444 13.3582 42.6447C11.1646 38.8455 10.0067 34.537 10 30.15V12.9173L30 5.00005L50 12.9178V30.15ZM22.5465 25.9212L20.7787 27.6887L28.4938 35.4035L39.69 24.2098L37.9222 22.4423L28.4938 31.8685L22.5465 25.9212Z" fill="#FEC110"/>
</svg>
